Coordinates
version=1
nRows=12
nColumns=34
inDegrees=no

Units are S.I. units (second, meters, Newtons, ...)
If the header above contains a line with 'inDegrees', this indicates whether rotational values are in degrees (yes) or radians (no).

endheader
time	pelvis_tilt	pelvis_list	pelvis_rotation	pelvis_tx	pelvis_ty	pelvis_tz	hip_flexion_r	hip_adduction_r	hip_rotation_r	knee_angle_r	ankle_angle_r	subtalar_angle_r	mtp_angle_r	hip_flexion_l	hip_adduction_l	hip_rotation_l	knee_angle_l	ankle_angle_l	subtalar_angle_l	mtp_angle_l	lumbar_extension	lumbar_bending	lumbar_rotation	arm_flex_r	arm_add_r	arm_rot_r	elbow_flex_r	pro_sup_r	arm_flex_l	arm_add_l	arm_rot_l	elbow_flex_l	pro_sup_l
0	-0.286161	0.0361752	-0.059746	-0.160192	0.926047	-0.624722	0.261913	-0.173899	-0.239003	0.0567123	0.235908	0.125961	-0.099419	0.214846	-0.118936	-0.229981	0.00948601	0.204236	0.085493	-0.0994765	0.339735	-0.0321176	0.040718	-0.246383	-0.224636	0.277115	2.3173	1.63268	-0.217647	-0.213675	0.361455	2.22417	1.68043
0.01	-0.288845	0.0367455	-0.0600813	-0.160289	0.925863	-0.624761	0.268036	-0.175408	-0.246872	0.0628734	0.241603	0.137124	-0.0994191	0.218427	-0.118833	-0.233841	0.0096292	0.206243	0.0899443	-0.0994765	0.342577	-0.0324318	0.0405991	-0.246013	-0.22504	0.279047	2.3212	1.58951	-0.217627	-0.213761	0.360925	2.22327	1.69115
0.02	-0.291526	0.0372207	-0.0603574	-0.160389	0.925674	-0.624795	0.273897	-0.176687	-0.253559	0.0684837	0.246493	0.146387	-0.0994191	0.222103	-0.118837	-0.23757	0.00979238	0.208245	0.0944521	-0.0994766	0.345347	-0.0326638	0.0404606	-0.245575	-0.225523	0.28081	2.32494	1.54842	-0.217287	-0.214073	0.360769	2.22252	1.7009
0.03	-0.294175	0.0375992	-0.0605728	-0.160488	0.925484	-0.624825	0.279458	-0.177735	-0.259071	0.0735345	0.250582	0.153759	-0.0994191	0.225838	-0.118945	-0.241136	0.0099733	0.210224	0.098963	-0.0994766	0.34801	-0.0328145	0.0403034	-0.245063	-0.226083	0.282394	2.32851	1.5097	-0.216624	-0.214612	0.360991	2.2219	1.70964
0.04	-0.296704	0.037877	-0.0607233	-0.160583	0.9253	-0.62485	0.284606	-0.178556	-0.263441	0.0780062	0.25389	0.159295	-0.0994191	0.22951	-0.11915	-0.244438	0.010164	0.212117	0.103307	-0.0994766	0.350456	-0.0328895	0.0401277	-0.244459	-0.226719	0.283771	2.33181	1.47422	-0.215629	-0.21538	0.361595	2.22143	1.71725
0.05	-0.298938	0.0380507	-0.0608007	-0.160668	0.925135	-0.624874	0.289137	-0.179165	-0.266772	0.081884	0.256478	0.163154	-0.0994191	0.23289	-0.119428	-0.24728	0.0103474	0.213802	0.107163	-0.0994767	0.352472	-0.0329037	0.0399293	-0.243725	-0.227431	0.284893	2.33468	1.44366	-0.214289	-0.216373	0.362577	2.22115	1.72358
0.06	-0.300638	0.038124	-0.060794	-0.16075	0.925013	-0.624906	0.292782	-0.179605	-0.269288	0.0851952	0.258485	0.165685	-0.0994192	0.235652	-0.119737	-0.249383	0.010495	0.215103	0.110064	-0.0994767	0.353761	-0.0328845	0.0396968	-0.242794	-0.228218	0.285698	2.33688	1.42041	-0.212584	-0.217582	0.363921	2.22109	1.72842
0.07	-0.301544	0.0381163	-0.0606911	-0.160828	0.924955	-0.624944	0.295306	-0.179969	-0.271378	0.0880651	0.260148	0.167485	-0.0994192	0.237445	-0.120014	-0.250431	0.0105677	0.215811	0.111481	-0.0994767	0.353995	-0.0328725	0.0394148	-0.241586	-0.229079	0.286123	2.33815	1.40723	-0.210487	-0.218991	0.365594	2.22129	1.73162
0.08	-0.301477	0.0380716	-0.0604849	-0.160899	0.924974	-0.624992	0.296638	-0.180403	-0.273615	0.0907761	0.261826	0.169411	-0.0994192	0.238024	-0.120175	-0.250162	0.0105204	0.215737	0.110951	-0.0994768	0.352934	-0.0329233	0.0390755	-0.240022	-0.230014	0.286116	2.33824	1.40655	-0.207973	-0.220582	0.367543	2.22175	1.73318
0.09	-0.300451	0.0380654	-0.0601778	-0.160974	0.925068	-0.625054	0.297021	-0.181115	-0.276715	0.0938009	0.263976	0.172515	-0.0994192	0.237396	-0.120125	-0.248479	0.0103123	0.214786	0.108258	-0.0994768	0.350559	-0.0331065	0.0386937	-0.238058	-0.23102	0.285653	2.33704	1.41968	-0.205032	-0.222342	0.369704	2.22246	1.73328
0.1	-0.298736	0.0382018	-0.059784	-0.161072	0.925218	-0.625135	0.297072	-0.182346	-0.281427	0.0977682	0.267089	0.177861	-0.0994192	0.235922	-0.119778	-0.245542	0.00992214	0.213009	0.103558	-0.0994769	0.347157	-0.0334988	0.0383145	-0.235705	-0.232094	0.284754	2.33461	1.44621	-0.201685	-0.22426	0.371998	2.22339	1.73237
0.11	-0.296775	0.0385874	-0.0593259	-0.161219	0.925393	-0.625239	0.297606	-0.184315	-0.288346	0.103302	0.271569	0.18628	-0.0994193	0.234201	-0.119073	-0.241742	0.00936885	0.210607	0.0973492	-0.0994769	0.343225	-0.0341672	0.0380015	-0.233013	-0.233237	0.283489	2.33117	1.48404	-0.197972	-0.226328	0.374344	2.22447	1.73103
